#!OML:ASF E:\id_vita\Project 1\Capture day 1\Session 1\Female.ASF
:FULLY-SPECIFIED
:DEGREES
1214
root 32.285 16.9601 -9.35255 -152.246 69.4789 184.35
lowerback -16.3542 1.64226 -5.86452
upperback -6.97468 3.58385 -0.108778
thorax 1.37282 2.13624 3.80449
lowerneck 9.75263 -0.419816 -6.41719
upperneck -24.1261 0.227041 5.54249
head -9.15362 0.389607 2.92869
rclavicle 1.49089e-014 4.33351e-014
rhumerus 62.4246 4.48181 -45.2646
rradius 38.0535
rwrist 9.57873
rhand -36.59 23.1595
rfingers 7.12502
rthumb -9.67904 -6.59812
lclavicle 1.49089e-014 4.33351e-014
lhumerus 78.1149 -7.88143 55.0941
lradius 23.5591
lwrist -32.819
lhand -39.0806 28.5366
lfingers 7.12502
lthumb -12.0814 58.1678
rfemur -11.2047 5.11544 23.9952
rtibia 18.3247
rfoot 0.476612 -5.68709
rtoes -11.4762
lfemur -41.3735 -9.90101 -10.2636
ltibia 20.7755
lfoot -6.94674 -7.84899
ltoes 1.52063
1215
root 32.2553 16.9643 -9.34458 -151.992 69.4402 184.815
lowerback -16.0867 1.77271 -5.57506
upperback -6.82951 3.67743 -0.0388169
thorax 1.39135 2.16549 3.72059
lowerneck 9.29097 -0.499916 -6.59536
upperneck -23.7788 0.11686 5.63907
head -8.93765 0.344057 2.99321
rclavicle -2.05991e-014 -2.74323e-014
rhumerus 62.4252 4.5703 -45.561
rradius 38.068
rwrist 10.1278
rhand -36.7392 20.5786
rfingers 7.12502
rthumb -9.82305 -9.17229
lclavicle -2.05991e-014 -2.74323e-014
lhumerus 78.2599 -7.77248 55.6592
lradius 23.3014
lwrist -33.5107
lhand -39.1716 28.7731
lfingers 7.12502
lthumb -12.1692 58.3991
rfemur -11.0675 4.40686 24.1882
rtibia 18.3061
rfoot -0.0801943 -5.07013
rtoes -11.8824
lfemur -41.2146 -9.90358 -10.1218
ltibia 20.6884
lfoot -6.72901 -7.87726
ltoes 1.44296
1216
root 32.239 16.9686 -9.33161 -152.217 69.483 184.559
lowerback -16.0936 1.80431 -5.65048
upperback -6.96159 3.74048 -0.0426163
thorax 1.24323 2.21226 3.76367
lowerneck 9.91253 -0.448016 -6.83508
upperneck -23.7824 0.124462 5.8501
head -9.05563 0.328404 3.1134
rclavicle -8.18496e-014 9.93923e-016
rhumerus 62.0637 4.74128 -45.4046
rradius 38.0087
rwrist 10.3744
rhand -36.8129 21.4721
rfingers 7.12502
rthumb -9.89415 -8.27542
lclavicle -8.18496e-014 9.93923e-016
lhumerus 78.0333 -7.93363 56.4933
lradius 22.9644
lwrist -34.3127
lhand -39.3003 28.4872
lfingers 7.12502
lthumb -12.2932 58.1058
rfemur -11.1199 4.63796 24.1154
rtibia 18.3896
rfoot -0.29604 -5.40995
rtoes -11.4156
lfemur -41.2329 -9.9368 -10.1351
ltibia 20.5182
lfoot -6.5029 -7.83822
ltoes 1.46911
1217
root 32.2028 16.9755 -9.33017 -152.292 69.4749 184.557
lowerback -15.7363 1.92444 -5.37786
upperback -6.96746 3.83226 -0.111871
thorax 1.06422 2.25409 3.53031
lowerneck 9.73894 -0.451819 -6.69385
upperneck -23.579 0.116682 5.72922
head -8.95291 0.322149 3.0426
rclavicle 3.04389e-014 1.64991e-014
rhumerus 61.9924 4.92472 -44.7207
rradius 38.0238
rwrist 10.569
rhand -37.5932 20.4476
rfingers 7.12502
rthumb -10.6469 -9.26267
lclavicle 3.04389e-014 1.64991e-014
lhumerus 78.0792 -7.94122 55.8916
lradius 23.0516
lwrist -33.4703
lhand -39.3491 28.178
lfingers 7.12502
lthumb -12.3402 57.7938
rfemur -11.1107 4.07148 24.0982
rtibia 18.4358
rfoot -0.761232 -5.04374
rtoes -10.7193
lfemur -41.2163 -9.98759 -10.1302
ltibia 20.38
lfoot -6.31208 -7.83955
ltoes 1.93186
1218
root 32.1904 16.9721 -9.31021 -152.591 69.5982 184.156
lowerback -15.9142 1.81777 -5.74828
upperback -6.95612 3.75614 -0.00690662
thorax 1.14308 2.22398 3.84785
lowerneck 9.84117 -0.33712 -6.72552
upperneck -23.4189 0.208059 5.58765
head -8.92501 0.371983 2.98837
rclavicle 3.762e-014 9.14409e-015
rhumerus 62.2201 5.07664 -45.0997
rradius 37.8008
rwrist 10.2981
rhand -36.2965 20.7192
rfingers 7.12502
rthumb -9.39592 -9.05142
lclavicle 3.762e-014 9.14409e-015
lhumerus 77.8602 -7.73147 57.5356
lradius 22.6071
lwrist -34.906
lhand -39.4199 27.5504
lfingers 7.12502
lthumb -12.4085 57.1621
rfemur -11.296 4.74958 23.9343
rtibia 18.4698
rfoot -0.435798 -5.63512
rtoes -11.1137
lfemur -41.3184 -9.96395 -10.1778
ltibia 20.1847
lfoot -6.04337 -7.86998
ltoes 2.47343
1219
root 32.1567 16.9673 -9.30737 -152.414 69.5631 184.365
lowerback -15.8883 1.81577 -5.48645
upperback -6.88788 3.70646 0.0456677
thorax 1.22192 2.18712 3.7501
lowerneck 9.6794 -0.283653 -6.73999
upperneck -23.0773 0.260875 5.58216
head -8.78136 0.389396 2.97649
rclavicle 2.18912e-014 -3.39922e-014
rhumerus 62.4524 5.20895 -45.0326
rradius 37.6464
rwrist 10.292
rhand -35.8984 21.0211
rfingers 7.12502
rthumb -9.01179 -8.76645
lclavicle 2.18912e-014 -3.39922e-014
lhumerus 77.763 -7.46078 57.9808
lradius 22.3463
lwrist -35.6349
lhand -39.8327 27.5165
lfingers 7.12502
lthumb -12.8065 57.1037
rfemur -11.4533 4.38251 24.0083
rtibia 18.4165
rfoot -0.553289 -5.30604
rtoes -11.6172
lfemur -41.3855 -10.0407 -10.0203
ltibia 20.0904
lfoot -5.8531 -7.84782
ltoes 2.34671
